<svg width="613" height="448" viewBox="0 0 613 448" fill="none" xmlns="http://www.w3.org/2000/svg">
<path d="M291.953 221.47C289.567 206.524 253.071 189.593 237.068 181.278C213.535 169.05 167.894 153.712 136.047 163.009C110.676 170.416 109.475 195.886 115.1 210.342C122.048 228.195 152.307 238.192 178.736 242.064C182.319 242.589 206.676 244.172 202.068 243.558C172.335 239.596 142.185 236.043 112.449 242.562C59.2928 254.215 26.5469 290.687 11.9583 322.779C-0.141825 349.396 -7.00954 395.887 57.2984 392.034C106.344 389.096 143.307 367.269 170.383 343.04C179.341 335.025 196.414 307.462 190.004 316.385C177.537 333.738 174.912 353.616 175.421 372.437C175.908 390.422 179.916 416.474 212.144 423.423C243.152 430.11 261.267 404.469 267.56 389.958C268.231 388.409 275.998 362.286 276.575 362.389C280.179 363.034 283.507 373.521 284.131 374.679C290.21 385.96 297.424 396.933 306.536 407.397C315.108 417.24 341.941 449.504 367.785 443.187C380.286 440.131 385.593 428.245 388.732 421.264C395.898 405.326 397.991 388.419 398.807 371.938C399.397 360.031 399.133 348.022 394.565 336.397C393.171 332.851 387.617 322.533 390.323 325.768C406.633 345.273 421.282 361.737 448.124 376.921C468.346 388.359 513.051 411.245 543.842 401.833C560.754 396.664 564.839 380.919 567.175 370.776C571.389 352.481 570.636 333.202 564.259 315.139C557.57 296.196 544.432 272.418 517.328 260.997C505.344 255.947 512.269 260.87 525.017 261.495C561.201 263.269 594.106 258.348 604.959 233.926C631.345 174.548 523.108 125.15 437.519 144.574C435.759 144.974 407.299 155.076 416.837 155.619C441.83 157.042 464.559 146.248 477.423 133.696C502.693 109.041 498.787 66.1275 480.207 40.5249C455.118 5.95097 397.217 -7.64269 346.838 15.4468C309.317 32.6437 286.488 58.8678 267.56 84.7854C247.084 112.822 230.491 142.243 217.977 172.061C210.532 189.801 203.659 208.947 203.659 227.448" stroke="#FFFFFF" stroke-width="8" stroke-linecap="round"/>
</svg>
