<svg width="17" height="21" viewBox="0 0 17 21" fill="none" xmlns="http://www.w3.org/2000/svg">
<path d="M7.08991 9.91261C4.69885 10.12 1.60461 11.6245 1.11719 14.2015C0.931001 15.1859 2.30573 14.6859 2.79058 14.4583C4.58112 13.6178 5.61212 11.8627 6.75523 10.3492C7.6844 9.11893 7.567 10.1794 7.39884 11.2481C7.00085 13.7773 6.06298 16.1671 5.57098 18.6702C5.48637 19.1007 5.29785 20.1581 5.69971 19.98C6.6546 19.5566 6.89919 15.0506 7.03842 14.2272C7.25882 12.9237 7.4497 11.6183 7.52756 10.2978C7.54456 10.0096 7.57478 9.19383 7.70777 9.45034C8.64766 11.2631 9.45362 13.1298 10.7456 14.7408C11.5127 15.6973 12.674 16.542 13.9894 16.3845C14.7531 16.2931 12.2889 13.3664 12.1873 13.2513C11.2254 12.1619 10.2037 11.1787 8.995 10.3749C8.90292 10.3137 8.11969 9.91559 8.11969 9.86125C8.11969 9.75625 10.8727 9.91326 10.9773 9.91261C12.5523 9.90286 14.0809 9.83136 15.3796 8.85965C15.5653 8.72072 16.4231 8.0925 15.74 8.06351C13.1779 7.95474 10.9384 8.54897 8.48011 9.03942C7.5915 9.21672 9.35749 6.99978 9.4584 6.85645C10.542 5.3173 11.2543 3.781 11.9041 2.02823C11.9827 1.81629 12.452 0.967729 11.8526 1.00095C10.5487 1.07322 9.81104 2.89575 9.4584 3.87734C8.73733 5.88447 8.38791 8.01839 8.0682 10.1181C7.88189 11.3416 6.5045 8.51117 6.29183 8.19192C6.05934 7.84291 2.26333 1.95016 1.7608 2.95278C0.799667 4.8704 0.406569 7.99755 2.6876 8.98806C3.77091 9.45847 5.18533 10.1438 6.39481 10.1438" stroke="white" stroke-linecap="round"/>
</svg>
