<svg width="148" height="188" viewBox="0 0 148 188" fill="none" xmlns="http://www.w3.org/2000/svg">
<path d="M55.6543 7.38981C51.4795 7.38981 49.426 14.7579 48.6053 18.1156C46.7609 25.6605 45.3154 34.0415 50.6845 40.4545C56.6283 47.5541 66.3874 50.2928 75.3055 50.2928C79.4317 50.2928 84.1233 50.9317 87.578 48.1882C90.1688 46.1309 92.2575 42.7946 93.9932 39.9981C97.2399 34.7673 98.1758 29.5333 98.1009 23.4658C98.0257 17.3723 93.5762 12.3744 89.429 8.30264C83.3847 2.36816 75.7049 1 67.5211 1C62.8571 1 59.9941 2.05134 56.2122 4.75274C54.708 5.82715 53.5229 7.28936 52.003 8.30264" stroke="white" stroke-width="2" stroke-linecap="round"/>
<path d="M60.655 31.4627C66.0888 34.1796 70.1496 36.6931 76.4987 35.2709C81.1949 34.219 84.4852 29.7166 86.5222 25.6426" stroke="white" stroke-width="2" stroke-linecap="round"/>
<path d="M70.3555 23.3792H72.2955" stroke="white" stroke-width="2" stroke-linecap="round"/>
<path d="M59.0383 17.2355C60.0601 17.2355 60.9928 16.9074 61.9484 16.5889" stroke="white" stroke-width="2" stroke-linecap="round"/>
<path d="M77.4688 12.709H78.7621" stroke="white" stroke-width="2" stroke-linecap="round"/>
<path d="M1 47.8347C3.2185 47.8347 5.48441 49.1015 7.51007 49.8644C13.0489 51.9505 18.5576 54.1326 24.0451 56.3498C33.4565 60.1523 42.6204 64.7055 52.1399 68.2313C55.688 69.5453 59.554 72.336 63.3778 72.7858C65.6578 73.0541 68.7846 73.9918 70.9028 74.8156C71.6659 75.1124 72.2513 75.8839 72.2889 74.568C72.3439 72.6461 72.7477 70.996 73.1801 69.1224C73.9474 65.797 75.5759 62.6729 76.299 59.4191C76.4629 58.6813 77.0272 57.9863 77.1653 57.3646C77.3593 56.4915 77.0252 55.6184 77.4128 54.7656C77.5687 54.4226 77.849 53.4735 78.1802 53.2804C79.3175 52.6169 84.3238 57.3423 85.1111 57.9835C87.8991 60.2542 90.6033 62.6408 93.6756 64.5183C95.8801 65.8655 97.8436 67.9126 100.136 68.9986C100.734 69.2818 101.544 70.2197 102.24 70.0135C104.098 69.4631 105.383 67.9602 106.696 66.647C111.354 61.9892 115.848 57.2057 121.102 53.1814C127.539 48.2511 133.769 43.4781 139.568 37.7849C141.633 35.7576 144.228 34.2639 146.251 32.2402" stroke="white" stroke-width="2" stroke-linecap="round"/>
<path d="M103.478 71.8948C98.123 71.8948 92.8967 72.5777 87.6357 73.578C84.6493 74.1458 81.5328 75.7466 78.5266 75.9048C77.7593 75.9452 74.8068 76.5484 74.6156 77.3405C74.1599 79.2282 76.2701 82.6142 76.9424 84.2218C78.6327 88.264 80.3812 92.2819 82.0663 96.3261C82.6793 97.7973 84.3188 99.841 84.3188 101.524C84.3188 104.074 86.8499 105.92 88.0813 107.935C89.2059 109.776 90.926 109.368 92.9081 109.049C98.7048 108.118 104.39 106.136 110.161 105.311" stroke="white" stroke-width="2" stroke-linecap="round"/>
<path d="M81.2 90.6082H106.597" stroke="white" stroke-width="2" stroke-linecap="round"/>
<path d="M86.1232 186.643C86.1232 175.58 85.907 164.489 87.3621 153.495C88.1194 147.773 88.1054 142.165 88.1054 136.398C88.1054 133.224 87.4982 129.323 88.2155 126.184C89.015 122.687 88.3006 118.988 89.069 115.53C89.3105 114.443 92.764 117.709 92.9509 117.87C97.1414 121.476 101.052 125.417 104.844 129.433C111.726 136.722 117.767 144.714 124.722 151.926C129.2 156.57 132.732 162.424 137.386 166.82C137.982 167.383 139.497 169.013 139.423 168.197C139.319 167.052 138.497 165.586 138.129 164.508C136.998 161.183 136.152 157.805 134.633 154.624C128.574 141.939 120.84 130.383 115.471 117.375C114.504 115.031 113.379 111.896 113.379 109.335" stroke="white" stroke-width="2" stroke-linecap="round"/>
</svg>
